<svg
  xmlns="http://www.w3.org/2000/svg"
  width="25"
  height="21"
  viewBox="0 0 25 21"
  fill="none"
>
  <path
    d="M1.25 9.37531H20.7322L14.1159 2.75905C13.8897 2.52297 13.7649 2.20763 13.7683 1.88063C13.7718 1.55363 13.9032 1.241 14.1345 1.00976C14.3657 0.778525 14.6783 0.647087 15.0053 0.643625C15.3323 0.640163 15.6477 0.764952 15.8838 0.991242L24.6338 9.74124C24.8681 9.97561 24.9998 10.2935 24.9999 10.6249C25 10.9564 24.8684 11.2743 24.6341 11.5087L15.8841 20.2587C15.7681 20.375 15.6303 20.4672 15.4786 20.5301C15.3269 20.5929 15.1642 20.6252 15 20.625C14.7527 20.6252 14.511 20.5519 14.3053 20.4146C14.0996 20.2773 13.9393 20.0821 13.8447 19.8536C13.75 19.6252 13.7253 19.3738 13.7736 19.1313C13.8219 18.8888 13.941 18.666 14.1159 18.4912L20.7325 11.8753H1.25C0.918479 11.8753 0.600536 11.7436 0.366116 11.5092C0.131695 11.2748 0 10.9568 0 10.6253C0 10.2938 0.131695 9.97584 0.366116 9.74142C0.600536 9.507 0.918479 9.37531 1.25 9.37531Z"
    fill="white"
  />
</svg>
