<svg
  xmlns="http://www.w3.org/2000/svg"
  width="25"
  height="20"
  viewBox="0 0 25 20"
  fill="none"
>
  <path
    d="M23.7499 8.74103H4.26769L10.8839 2.12478C11.1102 1.8887 11.235 1.57335 11.2316 1.24635C11.2281 0.919352 11.0967 0.606722 10.8654 0.375485C10.6342 0.144248 10.3216 0.0128097 9.99455 0.00934751C9.66755 0.00588529 9.35221 0.130675 9.11613 0.356964L0.366125 9.10697C0.131744 9.34133 4.3869e-05 9.65919 -1.52588e-05 9.99065C-7.43866e-05 10.3221 0.131516 10.64 0.365812 10.8745L9.11581 19.6245C9.23178 19.7407 9.36959 19.8329 9.5213 19.8958C9.67302 19.9587 9.83566 19.9909 9.99988 19.9907C10.2472 19.9909 10.4889 19.9177 10.6946 19.7804C10.9002 19.6431 11.0605 19.4478 11.1552 19.2194C11.2498 18.9909 11.2746 18.7395 11.2263 18.497C11.178 18.2545 11.0589 18.0317 10.8839 17.857L4.26738 11.241H23.7499C24.0814 11.241 24.3993 11.1093 24.6338 10.8749C24.8682 10.6405 24.9999 10.3225 24.9999 9.99103C24.9999 9.65951 24.8682 9.34157 24.6338 9.10714C24.3993 8.87272 24.0814 8.74103 23.7499 8.74103Z"
    fill="white"
  />
</svg>
