<svg
  xmlns="http://www.w3.org/2000/svg"
  width="14"
  height="14"
  viewBox="0 0 14 14"
  fill="none"
>
  <path
    d="M1.08149 12.1724L10.8348 2.41907L4.21025 2.41907C3.97878 2.41417 3.75843 2.31877 3.59646 2.15334C3.43449 1.9879 3.34378 1.76558 3.34378 1.53406C3.34378 1.30253 3.43449 1.08022 3.59646 0.914779C3.75843 0.74934 3.97877 0.653945 4.21025 0.649043L12.9712 0.649043C13.2059 0.649037 13.431 0.742234 13.5969 0.90814C13.7629 1.07405 13.8562 1.29908 13.8562 1.53375L13.8562 10.2947C13.8564 10.411 13.8336 10.5261 13.7891 10.6336C13.7446 10.741 13.6793 10.8385 13.597 10.9207C13.4733 11.0445 13.3156 11.1289 13.1439 11.1631C12.9722 11.1974 12.7942 11.1799 12.6325 11.1129C12.4707 11.0459 12.3325 10.9324 12.2352 10.7869C12.138 10.6413 12.0861 10.4701 12.0862 10.295L12.0865 3.67048L2.33305 13.424C2.16709 13.5899 1.94198 13.6832 1.70727 13.6832C1.47256 13.6832 1.24745 13.5899 1.08149 13.424C0.915518 13.258 0.822278 13.0329 0.822278 12.7982C0.822278 12.5635 0.915518 12.3384 1.08149 12.1724Z"
    fill="white"
  />
</svg>
