<svg xmlns="http://www.w3.org/2000/svg" width="46" height="55" viewBox="0 0 46 55" fill="none">
  <path
    d="M34.2459 47.5362C34.8929 48.1977 35.9535 48.2095 36.615 47.5625C37.2764 46.9155 37.2882 45.8549 36.6412 45.1934L34.2459 47.5362ZM37.1188 31.1507C37.1188 30.2255 36.3688 29.4754 35.4436 29.4754C34.5183 29.4754 33.7683 30.2255 33.7683 31.1507H37.1188ZM29.9138 48.9537L29.9125 27.9729L26.562 27.9731L26.5632 48.9539L29.9138 48.9537ZM33.9404 48.5245L31.0039 51.5268L33.3993 53.8696L36.3357 50.8673L33.9404 48.5245ZM32.6733 51.5268L29.7369 48.5245L27.3416 50.8673L30.278 53.8696L32.6733 51.5268ZM33.7624 27.9739L33.7634 33.3724L37.114 33.3718L37.113 27.9733L33.7624 27.9739ZM33.7634 46.3516V48.9538H37.114V46.3516H33.7634ZM41.7117 24.1474C47.059 18.6802 47.059 9.83119 41.7117 4.36401L39.3163 6.70679C43.39 10.8718 43.39 17.6396 39.3163 21.8046L41.7117 24.1474ZM24.6533 6.70679C28.7068 2.56254 35.2629 2.56254 39.3163 6.70679L41.7117 4.36401C36.344 -1.12394 27.6257 -1.12394 22.258 4.36401L24.6533 6.70679ZM24.6533 21.8046C20.5797 17.6396 20.5797 10.8718 24.6533 6.70679L22.258 4.36401C16.9107 9.83119 16.9107 18.6802 22.258 24.1474L24.6533 21.8046ZM39.3163 21.8046C38.6928 22.4421 37.8461 22.9461 36.8491 23.3816L38.1904 26.452C39.3814 25.9317 40.6643 25.2182 41.7117 24.1474L39.3163 21.8046ZM26.8991 23.3681C26.0499 22.9583 25.298 22.4637 24.6533 21.8046L22.258 24.1474C23.238 25.1494 24.3367 25.8518 25.4426 26.3856L26.8991 23.3681ZM31.0039 51.5268C31.4606 51.0599 32.2167 51.0599 32.6733 51.5268L30.278 53.8696C31.1356 54.7463 32.5416 54.7463 33.3993 53.8696L31.0039 51.5268ZM26.5632 48.9539C26.5633 49.6647 26.8391 50.3536 27.3416 50.8673L29.7369 48.5245C29.8544 48.6445 29.9138 48.7996 29.9138 48.9537L26.5632 48.9539ZM36.3357 50.8673C36.8381 50.3536 37.114 49.6646 37.114 48.9538H33.7634C33.7634 48.7996 33.823 48.6446 33.9404 48.5245L36.3357 50.8673ZM37.113 27.9733C37.1129 27.3601 37.5079 26.7501 38.1904 26.452L36.8491 23.3816C35.0928 24.1489 33.762 25.8756 33.7624 27.9739L37.113 27.9733ZM29.9125 27.9729C29.9125 25.8656 28.572 24.1756 26.8991 23.3681L25.4426 26.3856C26.1674 26.7354 26.562 27.3694 26.562 27.9731L29.9125 27.9729ZM32.7835 10.6724C32.3381 11.1278 31.6318 11.1278 31.1865 10.6724L28.7912 13.0152C30.5507 14.8142 33.4192 14.8142 35.1788 13.0152L32.7835 10.6724ZM35.1788 13.0152C36.9181 11.2369 36.9181 8.36887 35.1788 6.59059L32.7835 8.93337C33.2492 9.40942 33.2492 10.1963 32.7835 10.6724L35.1788 13.0152ZM31.1865 8.93337C31.6318 8.47803 32.3381 8.47803 32.7835 8.93337L35.1788 6.59059C33.4192 4.7916 30.5507 4.7916 28.7912 6.59059L31.1865 8.93337ZM31.1865 10.6724C30.7208 10.1963 30.7208 9.40942 31.1865 8.93337L28.7912 6.59059C27.0518 8.36887 27.0518 11.2369 28.7912 13.0152L31.1865 10.6724ZM36.6412 45.1934L35.1791 43.6985L32.7838 46.0413L34.2459 47.5362L36.6412 45.1934ZM35.1791 45.2992L36.2783 44.1753L33.8829 41.8325L32.7838 42.9564L35.1791 45.2992ZM36.2783 41.0904L34.8368 39.6167L32.4416 41.9595L33.8829 43.4332L36.2783 41.0904ZM34.8368 41.2173L36.4909 39.5262L34.0956 37.1834L32.4416 38.8745L34.8368 41.2173ZM37.1188 37.9838V31.1507H33.7683V37.9838H37.1188ZM36.4909 39.5262C36.8971 39.111 37.1188 38.5554 37.1188 37.9838H33.7683C33.7683 37.6905 33.8819 37.4019 34.0956 37.1834L36.4909 39.5262ZM34.8368 39.6167C35.2733 40.0628 35.2733 40.7712 34.8368 41.2173L32.4416 38.8745C31.6043 39.7305 31.6043 41.1035 32.4416 41.9595L34.8368 39.6167ZM36.2783 44.1753C37.1156 43.3193 37.1156 41.9465 36.2783 41.0904L33.8829 43.4332C33.4466 42.987 33.4466 42.2787 33.8829 41.8325L36.2783 44.1753ZM35.1791 43.6985C35.6155 44.1447 35.6155 44.853 35.1791 45.2992L32.7838 42.9564C31.9465 43.8124 31.9465 45.1852 32.7838 46.0413L35.1791 43.6985Z"
    fill="white" />
  <path
    d="M5.85056 52.8519H16.5724C18.4228 52.8519 19.9229 51.3518 19.9229 49.5013V27.866C19.9229 26.8424 19.455 25.8749 18.6525 25.2394L13.2912 20.9937C12.0724 20.0285 10.3496 20.0285 9.13083 20.9938L3.77026 25.2394C2.96787 25.8749 2.5 26.8424 2.5 27.8659V49.5013C2.5 51.3518 4.00011 52.8519 5.85056 52.8519Z"
    stroke="white" stroke-width="3.35056" />
  <path d="M11.2114 19.3462C11.2114 14.535 15.1117 10.6348 19.9229 10.6348M11.2114 30.068V44.1404" stroke="white"
    stroke-width="3.35056" stroke-linecap="round" />
</svg>