<svg width="547" height="248" viewBox="0 0 547 248" fill="none" xmlns="http://www.w3.org/2000/svg">
  <path
    d="M12.7037 106.458V18.9997C14.6418 18.4344 16.4992 18.1518 18.2759 18.1518C20.3755 18.1518 22.2733 18.4344 23.9691 18.9997V95.9196H66.7293C67.1331 96.5657 67.3754 97.5751 67.4561 98.948C67.6177 100.24 67.658 101.613 67.5773 103.067C67.4965 104.439 67.2139 105.57 66.7293 106.458H12.7037ZM104.158 108.154C98.6664 108.154 93.7403 106.862 89.3795 104.278C85.0994 101.613 81.7076 97.9789 79.2042 93.3758C76.7815 88.7727 75.5702 83.564 75.5702 77.7496C75.5702 71.9351 76.8219 66.7668 79.3254 62.2444C81.8288 57.7221 85.2205 54.1689 89.5006 51.5847C93.8614 48.9197 98.7471 47.5873 104.158 47.5873C109.568 47.5873 114.414 48.9197 118.694 51.5847C122.974 54.1689 126.325 57.7221 128.748 62.2444C131.251 66.7668 132.503 71.9351 132.503 77.7496C132.503 83.564 131.251 88.7727 128.748 93.3758C126.325 97.9789 122.974 101.613 118.694 104.278C114.495 106.862 109.649 108.154 104.158 108.154ZM104.037 97.7366C109.205 97.7366 113.324 95.9196 116.392 92.2856C119.542 88.6516 121.116 83.8062 121.116 77.7496C121.116 74.7616 120.672 72.0159 119.784 69.5125C114.939 69.351 110.537 68.3819 106.58 66.6053C102.704 64.8286 99.6354 62.406 97.3743 59.3372C94.144 60.7101 91.6002 63.052 89.7429 66.363C87.8855 69.5932 86.9568 73.4695 86.9568 77.9918C86.9568 83.887 88.4911 88.6516 91.5599 92.2856C94.7093 95.9196 98.8683 97.7366 104.037 97.7366ZM172.203 108.154C164.369 108.154 158.353 105.53 154.154 100.28C150.035 95.0313 147.976 87.3999 147.976 77.3862V63.4558C145.473 64.8286 142.606 65.9188 139.375 66.7264C136.226 67.534 132.875 67.9377 129.321 67.9377C125.364 67.9377 121.932 67.4128 119.025 66.363C116.845 65.6362 115.754 64.223 115.754 62.1233C115.754 60.589 116.199 59.2969 117.087 58.247C117.894 57.1972 118.864 56.6723 119.994 56.6723C120.317 56.6723 120.6 56.7127 120.842 56.7934C121.084 56.7934 121.327 56.8338 121.569 56.9146C122.942 57.2376 124.315 57.5202 125.687 57.7625C127.06 57.924 128.473 58.0048 129.927 58.0048C134.046 58.0048 137.962 57.0761 141.677 55.2187C145.473 53.2805 148.097 50.9386 149.551 48.1929C151.247 48.0314 152.983 48.2333 154.759 48.7986C156.536 49.3639 157.949 50.333 158.999 51.7058V77.265C158.999 84.2908 160.13 89.4188 162.391 92.649C164.652 95.7985 168.205 97.3732 173.051 97.3732C184.599 97.3732 190.373 88.9342 190.373 72.0563V49.2831C191.019 49.0409 191.826 48.839 192.795 48.6775C193.765 48.516 194.774 48.4352 195.824 48.4352C197.762 48.4352 199.619 48.7178 201.396 49.2831V84.1696C201.396 88.4497 202.042 91.8011 203.334 94.2237C204.707 96.5657 206.968 97.7366 210.118 97.7366C211.006 97.7366 211.975 97.5347 213.025 97.131C214.075 96.7272 215.165 96.1215 216.295 95.3139C217.668 95.96 218.799 97.0906 219.687 98.7057C220.575 100.24 220.979 101.774 220.898 103.309C219.606 104.762 217.951 105.933 215.932 106.822C213.913 107.71 211.733 108.154 209.391 108.154H209.27C201.517 108.154 196.268 104.762 193.522 97.9789C191.261 101.29 188.354 103.834 184.801 105.61C181.247 107.306 177.048 108.154 172.203 108.154Z"
    fill="black" />
  <ellipse cx="280.341" cy="67.7569" rx="36.2639" ry="44.0348" fill="#496642" />
  <path d="M275.16 43.9479C275.16 24.6551 290.702 8.11841 311.424 8.11841" stroke="black" stroke-width="15.5417"
    stroke-miterlimit="16" stroke-linecap="square" />
  <path
    d="M247.862 7.42523C244.783 40.8993 258.073 50.5978 268.017 51.6243C270.416 51.8719 272.294 49.852 272.43 47.4445C274.222 15.7214 261.842 5.32545 252.541 3.47629C250.121 2.99515 248.088 4.96767 247.862 7.42523Z"
    fill="black" />
  <path
    d="M346.59 14.4583L256.09 100.458C269.59 115.958 310.966 134.503 346.159 100.91C381.351 67.3173 361.254 29.2786 346.59 14.4583Z"
    fill="#FFA21F" />
  <path
    d="M344.175 18.0363C339.266 64.2082 381.314 76.8718 407.313 77.6797C409.95 77.7616 412.137 75.7109 412.213 73.0748C413.498 28.9022 373.552 15.397 349.21 13.7863C346.657 13.6174 344.446 15.4926 344.175 18.0363Z"
    fill="black" />
  <path
    d="M119.544 245.439C111.307 245.439 104.2 243.622 98.2243 239.988C92.3291 236.354 87.8068 231.266 84.6573 224.725C81.5078 218.184 79.9331 210.512 79.9331 201.71C79.9331 192.342 81.629 184.145 85.0207 177.12C88.4932 170.013 93.2982 164.481 99.4356 160.524C105.573 156.567 112.599 154.589 120.513 154.589C126.812 154.589 132.546 155.881 137.714 158.465C142.963 160.968 147.203 164.481 150.433 169.004C150.029 170.457 148.979 171.951 147.283 173.486C145.668 175.02 144.053 176.029 142.438 176.514C139.531 172.718 136.22 169.932 132.505 168.156C128.79 166.379 124.793 165.491 120.513 165.491C114.779 165.491 109.732 166.985 105.371 169.973C101.01 172.961 97.6186 177.12 95.196 182.45C92.7733 187.779 91.5619 193.998 91.5619 201.104C91.5619 207.807 92.6521 213.662 94.8326 218.668C97.0937 223.675 100.364 227.592 104.644 230.418C109.005 233.164 114.295 234.537 120.513 234.537C125.924 234.537 130.607 233.447 134.564 231.266C138.521 229.086 142.115 226.017 145.345 222.06C146.88 222.545 148.454 223.433 150.07 224.725C151.685 226.017 152.815 227.309 153.461 228.601C149.747 234.093 144.942 238.292 139.046 241.199C133.232 244.026 126.731 245.439 119.544 245.439Z"
    fill="black" />
  <path
    d="M260.07 211.764C258.293 211.36 256.638 210.674 255.103 209.705C253.569 208.736 252.277 207.403 251.227 205.707L255.345 199.529C259.222 193.796 262.694 189.919 265.763 187.901C268.912 185.882 272.304 184.872 275.938 184.872C279.572 184.872 282.641 185.962 285.144 188.143C287.648 190.242 289.384 193.109 290.353 196.743C292.614 192.948 295.521 190.041 299.075 188.022C302.628 185.922 306.585 184.872 310.946 184.872C317.245 184.872 322.09 186.931 325.482 191.05C328.954 195.169 330.691 200.943 330.691 208.372V222.545C330.691 226.986 331.256 230.176 332.387 232.114C333.598 234.052 335.496 235.022 338.08 235.022C339.21 235.022 340.058 235.506 340.624 236.475C341.27 237.444 341.593 238.736 341.593 240.351C341.593 241.644 341.229 242.814 340.502 243.864C339.856 244.914 338.766 245.439 337.232 245.439C325.522 245.439 319.667 238.252 319.667 223.877V208.372C319.667 199.65 316.235 195.29 309.371 195.29C305.818 195.29 302.668 196.703 299.923 199.529C297.258 202.356 295.158 206.272 293.624 211.279C292.17 216.286 291.443 222.101 291.443 228.723V243.743C290.636 243.985 289.747 244.187 288.778 244.349C287.809 244.51 286.881 244.591 285.992 244.591C284.054 244.591 282.237 244.308 280.541 243.743V205.102C280.541 201.952 280.137 199.529 279.33 197.833C278.522 196.138 277.069 195.29 274.969 195.29C273.758 195.29 272.385 195.855 270.851 196.986C269.397 198.035 267.418 200.498 264.915 204.375L260.07 211.764ZM338.128 235.022C340.147 235.022 342.448 234.416 345.033 233.205C347.698 231.993 350.282 229.934 352.785 227.027C355.289 224.12 357.348 220.203 358.963 215.277C360.578 210.27 361.386 204.011 361.386 196.501V184.872H352.422C351.857 183.58 351.574 181.965 351.574 180.027C351.574 178.089 351.857 176.474 352.422 175.181H361.386V153.741C362.92 153.176 364.777 152.893 366.958 152.893C368.896 152.893 370.753 153.176 372.53 153.741V175.181H390.579C391.225 176.474 391.548 178.089 391.548 180.027C391.548 181.965 391.225 183.58 390.579 184.872H372.53V209.947C372.53 218.022 373.741 224.241 376.164 228.601C378.667 232.882 382.18 235.022 386.703 235.022C389.045 235.022 390.216 236.798 390.216 240.351C390.216 241.886 389.812 243.097 389.004 243.985C388.277 244.955 387.228 245.439 385.855 245.439C380.606 245.439 376.164 243.945 372.53 240.957C368.977 237.969 366.352 233.81 364.656 228.48C361.265 234.295 357.106 238.575 352.18 241.32C347.253 244.066 342.287 245.439 337.28 245.439C336.23 245.439 335.382 244.914 334.736 243.864C334.09 242.895 333.767 241.684 333.767 240.23C333.767 238.696 334.131 237.444 334.857 236.475C335.584 235.506 336.674 235.022 338.128 235.022ZM386.747 235.022C389.412 235.022 391.996 233.77 394.5 231.266C397.084 228.682 399.264 225.25 401.041 220.97C400.718 219.032 400.556 217.053 400.556 215.034C400.556 209.22 401.808 204.052 404.312 199.529C406.815 195.007 410.207 191.454 414.487 188.87C418.848 186.205 423.733 184.872 429.144 184.872C434.555 184.872 439.4 186.205 443.68 188.87C447.96 191.454 451.311 195.007 453.734 199.529C456.238 204.052 457.489 209.22 457.489 215.034C457.489 220.849 456.238 226.058 453.734 230.661C451.311 235.264 447.96 238.898 443.68 241.563C439.481 244.147 434.635 245.439 429.144 245.439C424.218 245.439 419.736 244.389 415.698 242.29C411.741 240.109 408.47 237.162 405.886 233.447C400.879 241.442 394.217 245.439 385.899 245.439C384.849 245.439 384.001 244.955 383.355 243.985C382.709 243.016 382.386 241.765 382.386 240.23C382.386 236.758 383.84 235.022 386.747 235.022ZM429.023 235.022C434.191 235.022 438.31 233.205 441.378 229.571C444.528 225.937 446.103 221.091 446.103 215.034C446.103 212.047 445.659 209.301 444.77 206.797C439.925 206.636 435.524 205.667 431.567 203.89C427.69 202.114 424.622 199.691 422.36 196.622C419.13 197.995 416.586 200.337 414.729 203.648C412.872 206.878 411.943 210.754 411.943 215.277C411.943 221.172 413.477 225.937 416.546 229.571C419.696 233.205 423.854 235.022 429.023 235.022ZM497.204 245.439C489.371 245.439 483.354 242.814 479.155 237.565C475.037 232.316 472.977 224.685 472.977 214.671V200.741C470.474 202.114 467.607 203.204 464.377 204.011C461.227 204.819 457.876 205.223 454.323 205.223C450.366 205.223 446.934 204.698 444.026 203.648C441.846 202.921 440.756 201.508 440.756 199.408C440.756 197.874 441.2 196.582 442.088 195.532C442.896 194.482 443.865 193.957 444.995 193.957C445.318 193.957 445.601 193.998 445.843 194.078C446.086 194.078 446.328 194.119 446.57 194.199C447.943 194.522 449.316 194.805 450.689 195.047C452.062 195.209 453.475 195.29 454.928 195.29C459.047 195.29 462.964 194.361 466.678 192.504C470.474 190.565 473.098 188.224 474.552 185.478C476.248 185.316 477.984 185.518 479.761 186.084C481.537 186.649 482.951 187.618 484 188.991V214.55C484 221.576 485.131 226.704 487.392 229.934C489.653 233.083 493.207 234.658 498.052 234.658C509.6 234.658 515.374 226.219 515.374 209.341V186.568C516.02 186.326 516.828 186.124 517.797 185.962C518.766 185.801 519.775 185.72 520.825 185.72C522.763 185.72 524.621 186.003 526.397 186.568V221.455C526.397 225.735 527.043 229.086 528.335 231.509C529.708 233.851 531.969 235.022 535.119 235.022C536.007 235.022 536.976 234.82 538.026 234.416C539.076 234.012 540.166 233.406 541.297 232.599C542.67 233.245 543.8 234.375 544.688 235.991C545.577 237.525 545.981 239.059 545.9 240.594C544.608 242.047 542.952 243.218 540.933 244.107C538.914 244.995 536.734 245.439 534.392 245.439H534.271C526.518 245.439 521.269 242.047 518.524 235.264C516.262 238.575 513.355 241.119 509.802 242.895C506.249 244.591 502.049 245.439 497.204 245.439Z"
    fill="black" />
  <path fill-rule="evenodd" clip-rule="evenodd"
    d="M171.549 199.723V239.173C171.549 243.633 175.165 247.248 179.625 247.248H198.09V222.958C198.09 221.301 199.433 219.958 201.09 219.958H214.09C215.747 219.958 217.09 221.301 217.09 222.958V247.248H236.154C240.614 247.248 244.229 243.633 244.229 239.173V199.723C244.229 197.646 243.429 195.649 241.995 194.147L238.896 190.9V176.549C238.896 172.257 235.417 168.778 231.126 168.778H228.535C225.674 168.778 223.355 171.097 223.355 173.958L213.734 164.29C210.53 161.071 205.304 161.125 202.168 164.41L173.783 194.147C172.349 195.649 171.549 197.646 171.549 199.723Z"
    fill="#FFA21F" />
  <path d="M205.751 186.532C206.983 185.176 209.132 185.232 210.293 186.65L217.09 194.958H198.09L205.751 186.532Z"
    fill="white" />
  <path
    d="M217.09 194.958H198.09V201.458C198.09 203.115 199.433 204.458 201.09 204.458H214.09C215.747 204.458 217.09 203.115 217.09 201.458V194.958Z"
    fill="white" />
</svg>