<svg
  xmlns="http://www.w3.org/2000/svg"
  width="95"
  height="68"
  viewBox="0 0 95 68"
  fill="none"
>
  <ellipse cx="20.5106" cy="37.7532" rx="19.9263" ry="24.1962" fill="#496642" />
  <path
    d="M17.6641 24.6707C17.664 14.0697 26.2039 4.98315 37.5903 4.98315"
    stroke="black"
    stroke-width="8.53984"
    stroke-miterlimit="16"
    stroke-linecap="square"
  />
  <path
    d="M2.66422 4.60217C0.972737 22.9955 8.27507 28.3246 13.7393 28.8887C15.0574 29.0247 16.0893 27.9148 16.164 26.5919C17.1489 9.16077 10.3459 3.44839 5.23539 2.43231C3.90566 2.16794 2.78841 3.25179 2.66422 4.60217Z"
    fill="black"
  />
  <path
    d="M54.0347 9.89791L8.3866 54.9992C7.236 56.136 7.25435 58.0035 8.52734 59.0013C18.2415 66.6159 38.2553 74.7072 56.0934 57.0828C73.9631 39.4272 65.7131 19.6144 57.9943 10.0358C56.9963 8.79729 55.1662 8.78003 54.0347 9.89791Z"
    fill="#FFA21F"
  />
  <path
    d="M54.4877 10.4327C51.7902 35.8032 74.8946 42.7616 89.1805 43.2055C90.6293 43.2505 91.831 42.1237 91.8731 40.6752C92.5791 16.4033 70.6296 8.98248 57.2539 8.0974C55.8514 8.00459 54.6363 9.03502 54.4877 10.4327Z"
    fill="black"
  />
</svg>
