<svg
  xmlns="http://www.w3.org/2000/svg"
  width="55"
  height="55"
  viewBox="0 0 55 55"
  fill="none"
>
  <path
    d="M46.7428 17.3934V10.6584C46.7428 9.29129 46.4735 7.93757 45.9503 6.67453C45.4272 5.41149 44.6604 4.26386 43.6937 3.29717C42.727 2.33048 41.5793 1.56366 40.3163 1.04049C39.0533 0.517319 37.6995 0.248047 36.3324 0.248047H18.6675C15.9081 0.253133 13.2631 1.35157 11.3119 3.30279C9.3607 5.25401 8.26227 7.89897 8.25718 10.6584V17.3934C3.86982 18.1246 0.560059 21.2419 0.560059 25.0905V44.3333C0.560059 44.8437 0.762795 45.3331 1.12367 45.694C1.48454 46.0548 1.97399 46.2576 2.48434 46.2576H4.40862V52.4538C4.40862 52.9641 4.61136 53.4536 4.97223 53.8144C5.3331 54.1753 5.82255 54.378 6.3329 54.378H14.03C14.5404 54.378 15.0298 54.1753 15.3907 53.8144C15.7516 53.4536 15.9543 52.9641 15.9543 52.4538V46.2191H39.0457V52.4153C39.0457 52.9256 39.2484 53.4151 39.6093 53.7759C39.9701 54.1368 40.4596 54.3396 40.9699 54.3396H48.6671C49.1774 54.3396 49.6669 54.1368 50.0277 53.7759C50.3886 53.4151 50.5913 52.9256 50.5913 52.4153V46.2191H52.5156C53.026 46.2191 53.5154 46.0164 53.8763 45.6555C54.2372 45.2946 54.4399 44.8052 54.4399 44.2948V25.052C54.4399 21.2997 51.1301 18.1246 46.7428 17.3934ZM12.1057 35.3662V32.2296C12.1108 31.4044 12.4408 30.6144 13.0244 30.0309C13.6079 29.4473 14.3979 29.1173 15.2231 29.1122H39.7769C40.6021 29.1173 41.3921 29.4473 41.9756 30.0309C42.5591 30.6144 42.8892 31.4044 42.8942 32.2296V35.3662H12.1057ZM12.1057 10.6584C12.1057 8.91811 12.7971 7.24909 14.0276 6.01851C15.2582 4.78794 16.9272 4.09661 18.6675 4.09661H36.3324C38.0727 4.09661 39.7417 4.78794 40.9723 6.01851C42.2029 7.24909 42.8942 8.91811 42.8942 10.6584V26.0526C41.9316 25.5506 40.8626 25.2867 39.7769 25.2829H15.2231C14.139 25.2807 13.0701 25.5381 12.1057 26.0334V10.6392V10.6584ZM12.1057 50.491H8.25718V46.2191H12.1057V50.491ZM46.7428 50.491H42.8942V46.2191H46.7428V50.491ZM50.5913 42.3705H4.40862V25.052C4.40862 23.3394 6.04426 21.8192 8.25718 21.2035V37.175C8.25718 37.6853 8.45992 38.1748 8.82079 38.5357C9.18166 38.8965 9.67111 39.0993 10.1815 39.0993H44.8185C45.3289 39.0993 45.8183 38.8965 46.1792 38.5357C46.54 38.1748 46.7428 37.6853 46.7428 37.175V21.4151C48.9557 21.9732 50.5913 23.4933 50.5913 25.2637V42.3705Z"
    fill="white"
  />
</svg>
